<svg width="75" height="75" viewBox="0 0 75 75" fill="none" xmlns="http://www.w3.org/2000/svg">
<path d="M64.0625 7.8125H10.9375L15.625 60.9375L37.5 67.1875L59.375 60.9375L64.0625 7.8125Z" fill="#0277BD"/>
<path d="M37.5 12.5V62.3438L55 57.3437L58.9062 12.5H37.5Z" fill="#039BE5"/>
<path d="M51.7187 20.3125H37.5V26.5625H45.1562L44.6875 32.8125H37.5V39.0625H44.375L43.9063 46.0938L37.5 48.2813V54.8438L49.8437 50.7813L50.9375 32.8125L51.7187 20.3125Z" fill="white"/>
<path d="M37.5 20.3125V26.5625H23.5938L23.125 20.3125H37.5ZM30.3125 32.8125L30.625 39.0625H37.5V32.8125H30.3125ZM30.9375 42.1875H24.6875L25.1563 50.7813L37.5 54.8438V48.2813L31.0937 46.0938L30.9375 42.1875Z" fill="#EEEEEE"/>
</svg>
