<svg width="13" height="17" viewBox="0 0 13 17" fill="none" xmlns="http://www.w3.org/2000/svg">
<path d="M10.7492 1.83519C10.6541 1.27908 10.1454 0.902043 9.61301 0.993065L0.937061 2.47635C0.404662 2.56737 0.0501423 3.09198 0.145219 3.64809C0.240295 4.20421 0.748964 4.58124 1.28136 4.49022L8.99331 3.17174L10.3705 11.2272C10.4656 11.7833 10.9743 12.1604 11.5067 12.0693C12.0391 11.9783 12.3936 11.4537 12.2985 10.8976L10.7492 1.83519ZM0.196625 14.4045C-0.112609 14.8621 -0.00360893 15.4997 0.440083 15.8285C0.883775 16.1574 1.49414 16.0531 1.80338 15.5955L0.196625 14.4045ZM8.98178 1.40453L0.196625 14.4045L1.80338 15.5955L10.5885 2.59547L8.98178 1.40453Z" fill="#F7B50F"/>
</svg>
