<svg width="50" height="50" viewBox="0 0 50 50" fill="none" xmlns="http://www.w3.org/2000/svg">
<path d="M4.68749 0C2.1159 0 0.0122259 2.79946 0 6.22827V6.23913V6.24999V43.75C0 47.184 2.11181 50 4.68749 50H45.3125C47.8882 50 50 47.184 50 43.75V6.24999V6.23913V6.22827C49.9877 2.79946 47.8841 0 45.3125 0H4.68749ZM7.39747 2.77777H42.6066L25 19.1405L7.39747 2.77777ZM3.93067 2.94053L25 22.5259L46.0735 2.94053C47.1395 3.36912 47.9084 4.66035 47.9167 6.23371C47.9126 6.52667 47.6889 7.11262 47.3632 7.58462C47.0337 8.06205 46.7122 8.36044 46.7122 8.36044L46.7081 8.3713L25 28.8573L3.29183 8.3713L3.28777 8.36044C3.28777 8.36044 2.96631 8.06205 2.63673 7.58462C2.31121 7.11262 2.08742 6.52667 2.08333 6.23371C2.09147 4.66035 2.86052 3.36912 3.93067 2.94053ZM2.08333 10.6282L2.09147 10.6389L2.09961 10.6446V10.65L5.20833 13.5796V47.2222H4.68749C3.23895 47.2222 2.08333 45.6815 2.08333 43.75V10.6282ZM47.9167 10.6282V43.75C47.9167 45.6815 46.761 47.2222 45.3125 47.2222H44.7917V13.5796L47.9002 10.65V10.6446L47.9167 10.6282ZM7.29166 15.5436L25 32.2535L42.7083 15.5436V47.2222H7.29166V15.5436Z" fill="url(#paint0_linear_373_10)"/>
<defs>
<linearGradient id="paint0_linear_373_10" x1="25" y1="0" x2="25" y2="50" gradientUnits="userSpaceOnUse">
<stop stop-color="#F7B50F"/>
<stop offset="1" stop-color="white"/>
</linearGradient>
</defs>
</svg>
