<svg width="75" height="75" viewBox="0 0 75 75" fill="none" xmlns="http://www.w3.org/2000/svg">
<path d="M40.625 26.5625H28.125C22.0844 26.5625 17.1875 21.6656 17.1875 15.625C17.1875 9.58437 22.0844 4.6875 28.125 4.6875H40.625V26.5625Z" fill="#E64A19"/>
<path d="M39.0625 48.4375H28.125C22.0844 48.4375 17.1875 43.5406 17.1875 37.5C17.1875 31.4594 22.0844 26.5625 28.125 26.5625H39.0625V48.4375Z" fill="#7C4DFF"/>
<path d="M28.125 70.3125C22.0844 70.3125 17.1875 65.4156 17.1875 59.375C17.1875 53.3344 22.0844 48.4375 28.125 48.4375H39.0625V59.375C39.0625 65.4156 34.1656 70.3125 28.125 70.3125Z" fill="#66BB6A"/>
<path d="M50 26.5625H39.0625V4.6875H50C56.0406 4.6875 60.9375 9.58437 60.9375 15.625C60.9375 21.6656 56.0406 26.5625 50 26.5625Z" fill="#FF7043"/>
<path d="M50 48.4375C56.0406 48.4375 60.9375 43.5406 60.9375 37.5C60.9375 31.4594 56.0406 26.5625 50 26.5625C43.9594 26.5625 39.0625 31.4594 39.0625 37.5C39.0625 43.5406 43.9594 48.4375 50 48.4375Z" fill="#29B6F6"/>
</svg>
