<svg width="75" height="75" viewBox="0 0 75 75" fill="none" xmlns="http://www.w3.org/2000/svg">
<path d="M6.05944 40.8122C4.23019 38.9829 4.23019 36.0171 6.05944 34.1878L34.1878 6.05944C36.0171 4.23019 38.9829 4.23019 40.8122 6.05944L68.9405 34.1878C70.7698 36.0171 70.7698 38.9829 68.9405 40.8122L40.8122 68.9405C38.9829 70.7698 36.0171 70.7698 34.1878 68.9405L6.05944 40.8122Z" fill="url(#paint0_linear_395_182)"/>
<path d="M28.4743 11.8629L25.626 14.7114L32.9828 22.0682C32.6851 22.7067 32.5189 23.4188 32.5189 24.1697C32.5189 26.3015 33.8584 28.1205 35.7416 28.8309V46.8276C33.8584 47.538 32.5189 49.357 32.5189 51.4889C32.5189 54.2395 34.7488 56.4694 37.4994 56.4694C40.25 56.4694 42.4799 54.2395 42.4799 51.4889C42.4799 49.5562 41.379 47.8804 39.77 47.055V28.8555L46.8025 35.8879C46.5193 36.5135 46.3618 37.2079 46.3618 37.9392C46.3618 40.6898 48.5917 42.9197 51.3423 42.9197C54.0929 42.9197 56.3228 40.6898 56.3228 37.9392C56.3228 35.1886 54.0929 32.9587 51.3423 32.9587C50.8077 32.9587 50.293 33.0429 49.8102 33.1987L42.2575 25.646C42.4021 25.1796 42.4799 24.6836 42.4799 24.1697C42.4799 21.419 40.25 19.1891 37.4994 19.1891C36.9854 19.1891 36.4897 19.267 36.0231 19.4116L28.4743 11.8629Z" fill="#292929"/>
<defs>
<linearGradient id="paint0_linear_395_182" x1="37.5" y1="4.6875" x2="37.5" y2="70.3124" gradientUnits="userSpaceOnUse">
<stop stop-color="#F7B50F"/>
<stop offset="1" stop-color="#FAFAFA"/>
</linearGradient>
</defs>
</svg>
