<svg width="75" height="75" viewBox="0 0 75 75" fill="none" xmlns="http://www.w3.org/2000/svg">
<path d="M37.5 75C16.7893 75 0 58.2107 0 37.5C0 16.7893 16.7893 0 37.5 0C58.2107 0 75 16.7893 75 37.5C75 58.2107 58.2107 75 37.5 75Z" fill="url(#paint0_linear_418_2)"/>
<path d="M48.1738 58.4205C49.0591 60.1065 50.0212 61.722 52.0593 61.722C53.7711 61.722 54.6693 60.7245 54.6693 59.3445C54.6693 57.693 53.7404 57.1065 51.8571 56.145L50.8247 55.629C47.845 54.147 45.8632 52.29 45.8632 48.3675C45.8632 44.7525 48.2237 42.0015 51.9122 42.0015C54.5388 42.0015 56.4259 43.068 57.7871 45.861L54.5707 48.2715C53.8632 46.7895 53.0982 46.206 51.9122 46.206C50.7019 46.206 49.9355 47.1015 49.9355 48.2715C49.9355 49.7175 50.7031 50.3025 52.4751 51.198L53.5076 51.714C57.0195 53.4675 59 55.2585 59 59.2845C59 63.6225 56.0779 66 52.1552 66C48.3183 66 46.1395 63.7425 44.9267 60.948L48.1738 58.4205ZM33.3507 58.5435C33.9981 59.9025 34.982 60.948 36.397 60.948C37.7506 60.948 38.5297 60.321 38.5297 57.8835V42H42.7939V58.6515C42.7939 63.702 40.2953 66 36.6464 66C33.3495 66 30.9698 63.381 30 60.948L33.3507 58.5435Z" fill="#000001"/>
<defs>
<linearGradient id="paint0_linear_418_2" x1="37.5" y1="0" x2="37.5" y2="75" gradientUnits="userSpaceOnUse">
<stop stop-color="#F7B50F"/>
<stop offset="1" stop-color="#FAFAFA"/>
</linearGradient>
</defs>
</svg>
