<svg width="194" height="37" viewBox="0 0 194 37" fill="none" xmlns="http://www.w3.org/2000/svg">
<path d="M17.1 0.6C19.4333 0.6 21.5 0.966666 23.3 1.7C25.1333 2.4 26.8333 3.41667 28.4 4.75L24.55 8.75C23.3167 7.81667 22.15 7.13333 21.05 6.7C19.9833 6.26667 18.7667 6.05 17.4 6.05C14.7667 6.05 12.6333 7.1 11 9.2C9.4 11.2667 8.6 14.4333 8.6 18.7C8.6 23.2 9.21667 26.4333 10.45 28.4C11.7167 30.3333 13.6667 31.3 16.3 31.3C18.2 31.3 19.9167 30.8833 21.45 30.05V21.6H16.6L15.85 16.25H28.6V33.3C26.8 34.4 24.85 35.2667 22.75 35.9C20.6833 36.5 18.5833 36.8 16.45 36.8C11.35 36.8 7.48333 35.2667 4.85 32.2C2.21667 29.1333 0.9 24.6167 0.9 18.65C0.9 14.8833 1.61667 11.6333 3.05 8.9C4.48333 6.16667 6.41667 4.1 8.85 2.7C11.3167 1.3 14.0667 0.6 17.1 0.6ZM56.2313 36H50.0813L49.7313 32.45C48.7979 33.9167 47.6646 35.0167 46.3313 35.75C44.9979 36.45 43.4479 36.8 41.6813 36.8C39.2813 36.8 37.4479 36.0833 36.1813 34.65C34.9146 33.1833 34.2813 31.15 34.2813 28.55V9.5H41.3813V27.65C41.3813 29.05 41.6146 30.05 42.0813 30.65C42.5479 31.2167 43.2813 31.5 44.2813 31.5C46.1813 31.5 47.7979 30.35 49.1313 28.05V9.5H56.2313V36ZM72.0422 8.7C75.7755 8.7 78.9755 9.76667 81.6422 11.9L78.9422 15.95C76.7089 14.55 74.5089 13.85 72.3422 13.85C71.1755 13.85 70.2755 14.0667 69.6422 14.5C69.0089 14.9333 68.6922 15.5167 68.6922 16.25C68.6922 16.7833 68.8255 17.2333 69.0922 17.6C69.3922 17.9667 69.9255 18.3167 70.6922 18.65C71.4922 18.9833 72.6755 19.3833 74.2422 19.85C77.0422 20.6167 79.1255 21.65 80.4922 22.95C81.8589 24.2167 82.5422 25.9667 82.5422 28.2C82.5422 29.9667 82.0255 31.5 80.9922 32.8C79.9922 34.1 78.6255 35.1 76.8922 35.8C75.1589 36.4667 73.2255 36.8 71.0922 36.8C68.8589 36.8 66.8255 36.4667 64.9922 35.8C63.1589 35.1 61.5922 34.15 60.2922 32.95L63.7922 29.05C66.0255 30.7833 68.3922 31.65 70.8922 31.65C72.2255 31.65 73.2755 31.4 74.0422 30.9C74.8422 30.3667 75.2422 29.65 75.2422 28.75C75.2422 28.05 75.0922 27.5 74.7922 27.1C74.4922 26.7 73.9422 26.3333 73.1422 26C72.3422 25.6333 71.0922 25.2167 69.3922 24.75C66.7255 24.0167 64.7422 22.9833 63.4422 21.65C62.1755 20.2833 61.5422 18.6 61.5422 16.6C61.5422 15.1 61.9755 13.75 62.8422 12.55C63.7089 11.35 64.9255 10.4167 66.4922 9.75C68.0922 9.05 69.9422 8.7 72.0422 8.7ZM103.018 34.75C102.051 35.4167 100.951 35.9167 99.718 36.25C98.518 36.6167 97.318 36.8 96.118 36.8C93.3846 36.7667 91.318 35.9833 89.918 34.45C88.518 32.9167 87.818 30.6667 87.818 27.7V14.5H83.868V9.5H87.818V3.7L94.918 2.85V9.5H101.018L100.318 14.5H94.918V27.55C94.918 28.8167 95.1346 29.7333 95.568 30.3C96.0013 30.8667 96.668 31.15 97.568 31.15C98.468 31.15 99.468 30.85 100.568 30.25L103.018 34.75ZM125.875 28.65C125.875 29.6833 126.025 30.45 126.325 30.95C126.625 31.4167 127.125 31.7667 127.825 32L126.325 36.7C124.758 36.5667 123.475 36.2 122.475 35.6C121.508 35 120.758 34.0667 120.225 32.8C118.492 35.4667 115.842 36.8 112.275 36.8C109.642 36.8 107.542 36.05 105.975 34.55C104.442 33.0167 103.675 31.0333 103.675 28.6C103.675 25.7 104.725 23.4833 106.825 21.95C108.925 20.4167 111.942 19.65 115.875 19.65H118.925V18.35C118.925 16.7167 118.558 15.5833 117.825 14.95C117.092 14.3167 115.875 14 114.175 14C112.308 14 109.975 14.4667 107.175 15.4L105.575 10.65C108.875 9.35 112.142 8.7 115.375 8.7C118.975 8.7 121.625 9.48333 123.325 11.05C125.025 12.5833 125.875 14.8833 125.875 17.95V28.65ZM114.225 31.7C116.225 31.7 117.792 30.7167 118.925 28.75V23.7H116.575C112.742 23.7 110.825 25.1333 110.825 28C110.825 29.1667 111.108 30.0833 111.675 30.75C112.275 31.3833 113.125 31.7 114.225 31.7ZM154.236 9.5L145.736 36H137.286L128.636 9.5H136.336L141.586 30.45L146.936 9.5H154.236ZM168.435 8.7C172.402 8.7 175.502 9.95 177.735 12.45C179.968 14.9167 181.085 18.35 181.085 22.75C181.085 25.55 180.568 28.0167 179.535 30.15C178.535 32.25 177.068 33.8833 175.135 35.05C173.235 36.2167 170.985 36.8 168.385 36.8C164.418 36.8 161.302 35.5667 159.035 33.1C156.802 30.6 155.685 27.15 155.685 22.75C155.685 19.95 156.185 17.5 157.185 15.4C158.218 13.2667 159.685 11.6167 161.585 10.45C163.518 9.28333 165.802 8.7 168.435 8.7ZM168.435 14C166.635 14 165.285 14.7167 164.385 16.15C163.518 17.55 163.085 19.75 163.085 22.75C163.085 25.75 163.518 27.9667 164.385 29.4C165.285 30.8 166.618 31.5 168.385 31.5C170.152 31.5 171.468 30.8 172.335 29.4C173.235 27.9667 173.685 25.75 173.685 22.75C173.685 19.75 173.252 17.55 172.385 16.15C171.518 14.7167 170.202 14 168.435 14Z" fill="black"/>
<path d="M188.934 28.25C190.134 28.25 191.151 28.6667 191.984 29.5C192.818 30.3333 193.234 31.3333 193.234 32.5C193.234 33.6667 192.818 34.6833 191.984 35.55C191.151 36.3833 190.134 36.8 188.934 36.8C187.768 36.8 186.768 36.3833 185.934 35.55C185.101 34.6833 184.684 33.6667 184.684 32.5C184.684 31.3333 185.101 30.3333 185.934 29.5C186.768 28.6667 187.768 28.25 188.934 28.25Z" fill="#F8B916"/>
</svg>
