<svg width="75" height="75" viewBox="0 0 75 75" fill="none" xmlns="http://www.w3.org/2000/svg">
<path d="M12.5 7.8125H65.625L59.375 60.9375L39.0625 67.1875L17.1875 60.9375L12.5 7.8125Z" fill="#E7A42B"/>
<path d="M60.3594 12.5L55.0781 57.3594L39.0625 62.2812V12.5H60.3594Z" fill="#F2BF22"/>
<path d="M39.0625 32.8125L40.625 35.9375L39.0625 39.0625H24.6719L26 18.75H39.0625L40.625 21.875L39.0625 25H32.8594L32.3438 32.8125H39.0625Z" fill="#FAF9F8"/>
<path d="M38.9063 50.8906L39.0625 50.8438L40.625 54.6875L39.0625 57.375L38.9688 57.4063L25.9531 53.6875L25.0781 43.75H31.3594L31.7969 48.8594L38.9063 50.8906Z" fill="#EBEBEB"/>
<path d="M53.2344 32.8125L50.7812 53.7812L39.0625 57.375V50.8438L45.0469 49L46.2031 39.0625H39.0625V32.8125H53.2344Z" fill="white"/>
<path d="M54.5625 28.125H48.3281L47.9219 25H39.0625V18.75H53.3281L53.5937 20.7188L54.5625 28.125Z" fill="white"/>
</svg>
