<svg width="50" height="50" viewBox="0 0 50 50" fill="none" xmlns="http://www.w3.org/2000/svg">
<path d="M45.4545 0H4.54545C2.03409 0 0 2.03409 0 4.54545V45.4545C0 47.9659 2.03409 50 4.54545 50H45.4545C47.9659 50 50 47.9659 50 45.4545V4.54545C50 2.03409 47.9659 0 45.4545 0ZM15.8045 40.9091H9.1V19.3364H15.8045V40.9091ZM12.3841 16.2523C10.2227 16.2523 8.475 14.5 8.475 12.3432C8.475 10.1864 10.225 8.43636 12.3841 8.43636C14.5386 8.43636 16.2909 10.1886 16.2909 12.3432C16.2909 14.5 14.5386 16.2523 12.3841 16.2523ZM40.9182 40.9091H34.2182V30.4182C34.2182 27.9159 34.1727 24.6977 30.7341 24.6977C27.2455 24.6977 26.7091 27.4227 26.7091 30.2364V40.9091H20.0091V19.3364H26.4409V22.2841H26.5318C27.4273 20.5886 29.6136 18.8 32.875 18.8C39.6636 18.8 40.9182 23.2682 40.9182 29.0773V40.9091Z" fill="url(#paint0_linear_373_14)"/>
<defs>
<linearGradient id="paint0_linear_373_14" x1="25" y1="0" x2="25" y2="50" gradientUnits="userSpaceOnUse">
<stop stop-color="#F7B50F"/>
<stop offset="1" stop-color="white"/>
</linearGradient>
</defs>
</svg>
