<svg width="75" height="75" viewBox="0 0 75 75" fill="none" xmlns="http://www.w3.org/2000/svg">
<path d="M43.5938 37.5C43.5938 40.8684 40.8684 43.5938 37.5 43.5938C34.1316 43.5938 31.4062 40.8684 31.4062 37.5C31.4062 34.1316 34.1316 31.4062 37.5 31.4062C40.8684 31.4062 43.5938 34.1316 43.5938 37.5Z" fill="url(#paint0_linear_395_167)"/>
<path d="M37.5 44.0625C33.8822 44.0625 30.9375 41.1187 30.9375 37.5C30.9375 33.8813 33.8822 30.9375 37.5 30.9375C41.1178 30.9375 44.0625 33.8813 44.0625 37.5C44.0625 41.1187 41.1178 44.0625 37.5 44.0625ZM37.5 31.875C34.3978 31.875 31.875 34.3978 31.875 37.5C31.875 40.6022 34.3978 43.125 37.5 43.125C40.6022 43.125 43.125 40.6022 43.125 37.5C43.125 34.3978 40.6022 31.875 37.5 31.875Z" fill="black"/>
<path d="M22.9444 70.7841C21.3403 70.7841 19.8797 70.4166 18.6019 69.6928C16.4644 68.4806 14.9869 66.3919 14.2087 63.4866C13.3041 60.105 13.4119 55.6134 14.52 50.4759C5.58375 47.4019 0.46875 42.6853 0.46875 37.5C0.46875 32.3138 5.58281 27.5981 14.5191 24.525C13.4109 19.3866 13.3022 14.895 14.2069 11.5134C14.985 8.60719 16.4625 6.51844 18.5991 5.30719C19.8759 4.58344 21.3375 4.21594 22.9416 4.21594C27.0553 4.21594 32.2144 6.77532 37.5019 11.4328C42.7894 6.78 47.9466 4.2225 52.0556 4.2225C53.6597 4.2225 55.1203 4.59 56.3981 5.31375C58.5328 6.52407 60.0113 8.60907 60.7894 11.5116C61.695 14.8922 61.5863 19.3847 60.4772 24.5241C69.4153 27.5972 74.5312 32.3138 74.5312 37.5C74.5312 42.6863 69.4153 47.4028 60.4772 50.4769C61.5853 55.6153 61.6941 60.1069 60.7884 63.4875C60.0103 66.3909 58.5337 68.4759 56.4009 69.6863C55.1222 70.41 53.6606 70.7775 52.0575 70.7775C47.9456 70.7775 42.7866 68.22 37.5009 63.5691C32.2134 68.2256 27.0553 70.7841 22.9444 70.7841ZM18.1284 51.5681C17.1994 55.9903 17.0953 59.7684 17.8322 62.5172C18.3403 64.4166 19.2206 65.7338 20.4516 66.4313C21.1575 66.8316 21.9966 67.035 22.9444 67.035C26.1263 67.035 30.315 64.8956 34.7766 61.0003C32.5406 58.7484 30.3581 56.1994 28.2816 53.415C24.69 53.025 21.2775 52.4044 18.1284 51.5681ZM40.2244 60.9984C44.685 64.89 48.8747 67.0275 52.0566 67.0284C53.0044 67.0284 53.8434 66.825 54.5513 66.4247C55.7784 65.7291 56.6569 64.4147 57.1641 62.5181C57.9009 59.7675 57.7978 55.9903 56.8688 51.5691C53.7169 52.4053 50.3034 53.0259 46.7128 53.4159C44.6372 56.2003 42.4575 58.7484 40.2244 60.9984ZM33.3431 53.8059C34.7044 55.4709 36.0975 57.0244 37.5 58.4372C38.8988 57.0253 40.2928 55.4719 41.6531 53.8059C40.2553 53.8725 38.8631 53.9063 37.5 53.9063C36.1359 53.9063 34.7428 53.8725 33.3431 53.8059ZM30.3272 49.8553C32.6662 50.055 35.0784 50.1563 37.5 50.1563C39.9234 50.1563 42.3328 50.055 44.6681 49.8563C46.0612 47.9025 47.3897 45.855 48.6188 43.7672C49.8075 41.7469 50.9259 39.6384 51.9441 37.4991C50.9288 35.3653 49.8112 33.2578 48.6197 31.2328C47.3934 29.1497 46.065 27.1022 44.6681 25.1438C42.3347 24.945 39.9253 24.8438 37.5 24.8438C35.0737 24.8438 32.6634 24.945 30.3309 25.1447C28.9341 27.1003 27.6038 29.1478 26.3756 31.2338C25.185 33.2578 24.0675 35.3653 23.0512 37.5019C24.0656 39.6338 25.1831 41.7413 26.3747 43.7681C27.5972 45.8447 28.9256 47.8913 30.3272 49.8553ZM53.8978 41.9803C53.2359 43.2422 52.5497 44.4797 51.8494 45.6684C51.1434 46.8703 50.3925 48.0759 49.6125 49.2647C51.8381 48.9216 53.9672 48.4819 55.9603 47.9522C55.4072 46.0313 54.7144 44.0278 53.8978 41.9803ZM19.035 47.9513C21.0291 48.48 23.1572 48.9206 25.38 49.2638C24.5953 48.0675 23.8444 46.8609 23.1431 45.6684C22.4447 44.4806 21.7575 43.245 21.0966 41.9831C20.2838 44.0213 19.5919 46.0228 19.035 47.9513ZM56.0775 37.5C57.51 40.6791 58.6772 43.8216 59.5537 46.8534C66.4931 44.4122 70.7812 40.8506 70.7812 37.5C70.7812 34.1494 66.4931 30.5878 59.5537 28.1466C58.6791 31.1784 57.5109 34.3209 56.0775 37.5ZM15.4425 28.1484C8.50594 30.5888 4.21875 34.1503 4.21875 37.5C4.21875 40.8506 8.50594 44.4122 15.4444 46.8525C16.32 43.8197 17.4872 40.6772 18.9178 37.5019C17.4862 34.3256 16.3191 31.1831 15.4425 28.1484ZM19.0341 27.0488C19.5909 28.9744 20.2828 30.9769 21.0966 33.0188C21.7566 31.7606 22.4428 30.5241 23.1441 29.3325C23.8491 28.1334 24.6 26.9278 25.3828 25.7363C23.1572 26.0784 21.0291 26.5191 19.0341 27.0488ZM49.6144 25.7353C50.3991 26.9325 51.15 28.1381 51.8512 29.3325C52.5506 30.5203 53.2378 31.7569 53.8997 33.0188C54.7144 30.9778 55.4062 28.9753 55.9631 27.0478C53.9663 26.5181 51.8381 26.0775 49.6144 25.7353ZM22.9416 7.96594C21.9937 7.96594 21.1556 8.16844 20.4506 8.56969C19.2206 9.26719 18.3394 10.5844 17.8303 12.4838C17.0944 15.2353 17.1975 19.0125 18.1275 23.4328C21.2775 22.5966 24.6919 21.975 28.2844 21.585C30.3628 18.7997 32.5453 16.2525 34.7784 14.0025C30.3159 10.1053 26.1244 7.96594 22.9416 7.96594ZM46.7137 21.5841C50.3044 21.9741 53.7178 22.5947 56.8697 23.4309C57.7997 19.0097 57.9038 15.2316 57.1659 12.4809C56.6578 10.5853 55.7784 9.27094 54.5503 8.57532C53.8434 8.175 53.0044 7.97157 52.0556 7.97157C48.8747 7.97157 44.6869 10.11 40.2253 14.0025C42.4566 16.2516 44.6372 18.7997 46.7137 21.5841ZM37.5 21.0938C38.8631 21.0938 40.2553 21.1275 41.6541 21.1941C40.2947 19.5309 38.9016 17.9784 37.5019 16.5647C36.0984 17.9803 34.7062 19.5328 33.3469 21.1941C34.7447 21.1275 36.1369 21.0938 37.5 21.0938Z" fill="url(#paint1_linear_395_167)"/>
<path d="M22.9416 4.68468C27.1547 4.68468 32.3128 7.41281 37.5028 12.06C42.6919 7.41656 47.8472 4.69125 52.0566 4.69125C53.5781 4.69125 54.9619 5.03812 56.1684 5.72156C58.1897 6.86718 59.5922 8.85562 60.3366 11.6334C61.3463 15.3056 61.1344 19.8272 59.9297 24.8334C68.5753 27.7219 74.0625 32.2791 74.0625 37.5C74.0625 42.7209 68.5753 47.2781 59.9287 50.1675C61.1859 55.5797 61.3969 60.2231 60.3356 63.3666C59.5913 66.1434 58.1897 68.1328 56.1703 69.2784C54.9619 69.9628 53.8641 70.3125 52.3434 70.3125C52.3425 70.3125 51.9534 70.3125 51.9525 70.3125C47.7412 70.3125 42.6881 67.5844 37.5 62.9428C32.3109 67.5891 27.1547 70.3153 22.9434 70.3153C21.4219 70.3153 20.0381 69.9684 18.8316 69.285C16.8084 68.1366 15.405 66.1453 14.6616 63.3656C13.5459 59.8809 13.7709 55.3003 15.0684 50.1666C6.42375 47.2772 0.9375 42.7209 0.9375 37.5C0.9375 32.28 6.42375 27.7228 15.0675 24.8334C14.4234 21.9656 14.0119 19.3031 13.9978 16.875C13.9866 14.9569 14.2481 13.1728 14.6606 11.6344C15.405 8.85374 16.8075 6.8625 18.8306 5.715C20.0363 5.03062 21.42 4.68468 22.9416 4.68468ZM17.7731 24.0131C21.0328 23.1178 24.6525 22.4409 28.5384 22.0284C30.7716 19.0191 33.1087 16.3134 35.4628 13.9809C30.8953 9.90656 26.4478 7.49625 22.9416 7.49625C21.9113 7.49625 20.9963 7.71937 20.2191 8.16093C18.8756 8.92312 17.9203 10.3359 17.3775 12.3619C16.5731 15.3637 16.7559 19.4212 17.7731 24.0131ZM57.2241 24.0122C58.2413 19.4203 58.4241 15.3619 57.6197 12.36C57.0778 10.3378 56.1225 8.92781 54.7819 8.1675C54.0037 7.72593 53.0859 7.50281 52.0566 7.50281C48.5531 7.50281 44.1084 9.91031 39.5419 13.9809C41.895 16.3134 44.2294 19.0191 46.4606 22.0275C50.3447 22.44 53.9644 23.1169 57.2241 24.0122ZM32.3222 21.7181C34.0116 21.6178 35.7056 21.5306 37.4672 21.5306C39.2287 21.5306 40.9875 21.6187 42.6769 21.7181C40.9819 19.5816 39.2419 17.6297 37.5009 15.9019C35.76 17.6297 34.0191 19.5816 32.3222 21.7181ZM37.5 50.625C40.0884 50.625 42.5662 50.5116 44.9231 50.3044C46.3472 48.3197 47.7244 46.2122 49.0219 44.0053C50.2903 41.85 51.4378 39.6684 52.4625 37.5C51.4378 35.3316 50.2903 33.1509 49.0228 30.9966C47.7244 28.7887 46.3481 26.6822 44.9231 24.6975C42.5672 24.4884 40.0894 24.375 37.5 24.375C34.9106 24.375 32.4319 24.4884 30.075 24.6966C28.6491 26.6812 27.2709 28.7887 25.9725 30.9956C24.705 33.1509 23.5575 35.3325 22.5328 37.5009C23.5575 39.6694 24.7041 41.85 25.9716 44.0044C27.27 46.2112 28.6472 48.3187 30.0722 50.3034C32.43 50.5116 34.9097 50.625 37.5 50.625ZM53.9494 34.1372C55.0041 31.5975 55.8769 29.1037 56.5425 26.7187C54.1491 26.0606 51.5053 25.5169 48.6413 25.1184C49.605 26.55 50.5434 28.0341 51.4463 29.5697C52.3406 31.0875 53.1722 32.6137 53.9494 34.1372ZM21.0459 34.1381C21.8222 32.6147 22.6547 31.0884 23.5472 29.5697C24.4509 28.0341 25.3903 26.5509 26.355 25.1194C23.4909 25.5169 20.8472 26.0616 18.4538 26.7197C19.1194 29.1047 19.9922 31.5975 21.0459 34.1381ZM59.2388 47.4581C66.81 44.8931 71.25 41.1244 71.25 37.5C71.25 33.8756 66.81 30.1069 59.2388 27.5419C58.3453 30.7341 57.1116 34.0884 55.5638 37.4991C57.1116 40.9106 58.3453 44.265 59.2388 47.4581ZM15.7594 47.4572C16.6519 44.2659 17.8847 40.9116 19.4325 37.5019C17.8847 34.0912 16.6509 30.7359 15.7584 27.5437C8.18813 30.1087 3.75 33.8766 3.75 37.5C3.75 41.1244 8.18906 44.8922 15.7594 47.4572ZM48.6413 49.8816C51.5053 49.4841 54.1491 48.9403 56.5425 48.2812C55.8759 45.8962 55.0031 43.4025 53.9494 40.8619C53.1722 42.3853 52.3397 43.9116 51.4463 45.4303C50.5434 46.9659 49.605 48.45 48.6413 49.8816ZM26.3522 49.8806C25.3884 48.4491 24.45 46.9659 23.5462 45.4312C22.6537 43.9134 21.8222 42.3881 21.0459 40.8656C19.9922 43.4044 19.1203 45.8972 18.4547 48.2812C20.8472 48.9384 23.49 49.4822 26.3522 49.8806ZM22.9444 67.5028C26.4497 67.5028 30.8953 65.0934 35.4619 61.0209C33.1059 58.6875 30.7697 55.9809 28.5356 52.9706C24.6516 52.5591 21.0337 51.8822 17.775 50.9869C16.7587 55.5787 16.5759 59.6362 17.3794 62.6381C17.9212 64.6631 18.8775 66.0759 20.22 66.8381C20.9963 67.2797 21.9141 67.5028 22.9444 67.5028ZM52.0566 67.4972C53.0869 67.4972 54.0028 67.2741 54.7819 66.8325C56.1225 66.0722 57.0759 64.6622 57.6169 62.6391C58.4212 59.6362 58.2384 55.5787 57.2222 50.9878C53.9625 51.8831 50.3438 52.56 46.4587 52.9716C44.2275 55.9809 41.8922 58.6866 39.5391 61.02C44.1056 65.0887 48.5513 67.4962 52.0566 67.4972ZM37.5 59.1C39.2409 57.3712 40.9809 55.4184 42.6769 53.2819C40.9884 53.3822 39.3403 53.5941 37.5778 53.5941C35.8144 53.5941 34.0088 53.3822 32.3194 53.2819C34.0163 55.4194 35.7581 57.3722 37.5 59.1ZM22.6087 3.8175C20.9222 3.8175 19.7166 4.13437 18.3684 4.89843C16.1194 6.17437 14.5669 8.35875 13.755 11.3916C12.855 14.7544 12.9328 19.1747 13.9762 24.2175C5.08031 27.3647 0 32.1797 0 37.5C0 42.8212 5.08125 47.6353 13.9772 50.7825C12.9338 55.8253 12.8559 60.2456 13.7569 63.6084C14.5678 66.6394 16.1194 68.8237 18.3703 70.1016C19.7203 70.8666 21.3422 71.1919 23.0278 71.1919C27.2344 71.1919 32.1712 68.8153 37.5009 64.1925C42.8297 68.8106 47.85 71.2462 52.0556 71.2472C53.7422 71.2472 55.2816 70.86 56.6316 70.095C58.8787 68.8209 60.4294 66.6394 61.2403 63.6103C62.1412 60.2466 62.0634 55.8262 61.02 50.7844C69.9178 47.6362 75 42.8212 75 37.5C75 32.1787 69.9187 27.3637 61.0209 24.2166C62.0653 19.1728 62.1422 14.7525 61.2412 11.3897C60.4294 8.36062 58.8778 6.17906 56.6297 4.905C55.2806 4.14093 53.7412 3.75281 52.0556 3.75281C47.8509 3.75281 42.8316 6.18937 37.5019 10.8094C32.1712 6.18562 27.1275 3.81468 22.92 3.81468L22.6087 3.8175ZM18.4875 22.8534C18.0544 20.6747 17.7638 18.6328 17.7478 16.8422C17.7337 15.2297 17.955 13.8262 18.2822 12.6037C18.7575 10.83 19.5647 9.60937 20.6812 8.97562C21.315 8.61562 22.0875 8.37187 22.9528 8.37187C25.935 8.37187 29.8594 10.4137 34.0931 14.0287C32.0109 16.1597 29.9756 18.5466 28.0312 21.1397C24.6703 21.5147 21.4659 22.0894 18.4875 22.8534ZM40.9106 14.0306C45.1434 10.4184 49.0772 8.44031 52.0556 8.44031C52.9219 8.44031 53.6841 8.62312 54.3187 8.98312C55.4334 9.615 56.2397 10.8328 56.7141 12.6028C57.5334 15.2447 57.4275 18.7566 56.5097 22.8525C53.5312 22.0894 50.3278 21.5137 46.9678 21.1406C45.0244 18.5484 42.9909 16.1616 40.9106 14.0306ZM34.3809 20.6812C35.4084 19.4625 36.4519 18.3094 37.5009 17.2331C38.55 18.3094 39.5925 19.4625 40.6191 20.6812C39.57 20.6437 38.5266 20.625 37.5 20.625C36.4734 20.625 35.4309 20.6437 34.3809 20.6812ZM30.5859 25.5937C32.8406 25.4072 35.1637 25.2741 37.5 25.2741C39.8353 25.2741 42.1584 25.4072 44.4122 25.5937C45.7547 27.4866 47.0334 29.4619 48.2147 31.4709C49.3603 33.4191 50.4394 35.445 51.4238 37.4991C50.4384 39.5541 49.3594 41.5809 48.2138 43.5291C47.0316 45.5391 45.7537 47.5134 44.4113 49.4062C42.1584 49.5928 39.8353 49.8431 37.5 49.8431C35.1628 49.8431 32.8388 49.5919 30.5831 49.4053C29.2397 47.5134 27.9609 45.5381 26.7787 43.5281C25.6331 41.5809 24.555 39.555 23.5706 37.5C24.555 35.445 25.6341 33.4181 26.7797 31.47C27.9628 29.4609 29.2425 27.4856 30.5859 25.5937ZM53.8331 31.8975C53.3184 30.9431 52.7906 30.0056 52.2553 29.0944C51.7209 28.1859 51.1612 27.2737 50.5819 26.3672C52.245 26.6503 53.8491 26.9887 55.3763 27.3797C54.9384 28.8478 54.4219 30.3591 53.8331 31.8975ZM19.62 27.3797C21.1472 26.9887 22.7512 26.6503 24.4144 26.3672C23.8341 27.2737 23.2744 28.1859 22.74 29.0934C22.2047 30.0047 21.6769 30.9422 21.1622 31.8966C20.5734 30.36 20.0578 28.8487 19.62 27.3797ZM56.5922 37.4991C57.9188 34.5347 59.0175 31.6003 59.8641 28.7559C66.3356 31.1175 70.3125 34.4259 70.3125 37.5C70.3125 40.5741 66.3356 43.8825 59.8641 46.2441C59.0166 43.3987 57.9188 40.4634 56.5922 37.4991ZM15.1331 46.2431C8.66344 43.8816 4.6875 40.5731 4.6875 37.5C4.6875 34.4269 8.66344 31.1184 15.1322 28.7569C15.9788 31.6022 17.0766 34.5366 18.4031 37.5009C17.0775 40.4644 15.9797 43.3987 15.1331 46.2431ZM50.5809 48.6337C51.1603 47.7262 51.7209 46.8141 52.2544 45.9066C52.7906 44.9953 53.3184 44.0569 53.8331 43.1025C54.4219 44.6409 54.9375 46.1531 55.3763 47.6222C53.8481 48.0112 52.2441 48.3506 50.5809 48.6337ZM19.6209 47.6203C20.0588 46.1522 20.5744 44.6419 21.1622 43.1053C21.6759 44.0587 22.2037 44.9962 22.7391 45.9066C23.2725 46.8141 23.8322 47.7253 24.4125 48.6328C22.7503 48.3487 21.1472 48.0103 19.6209 47.6203ZM22.9444 66.5653C22.0781 66.5653 21.3169 66.3825 20.6822 66.0225C19.5666 65.3887 18.7594 64.1691 18.285 62.3953C17.5059 59.7281 17.5941 56.2153 18.4894 52.1456C21.4669 52.9087 24.6694 53.4844 28.0284 53.8575C29.9737 56.4506 32.0091 58.8384 34.0922 60.9712C29.8594 64.5872 25.9247 66.5662 22.9444 66.5653ZM46.9669 53.8594C50.3269 53.4853 53.5303 52.9106 56.5088 52.1475C57.5447 56.5912 57.6263 60.1331 56.7122 62.3962C56.2388 64.1672 55.4334 65.385 54.3197 66.0159C53.6841 66.3759 52.9228 66.5588 52.0575 66.5588C49.0762 66.5588 45.1406 64.5806 40.9088 60.9703C42.99 58.8394 45.0234 56.4525 46.9669 53.8594ZM37.5 57.7687C36.45 56.6925 35.4056 55.5384 34.3781 54.3187C35.4281 54.3562 36.4725 54.375 37.5 54.375C38.5266 54.375 39.57 54.3562 40.6191 54.3187C39.5925 55.5384 38.5491 56.6925 37.5 57.7687Z" fill="url(#paint2_linear_395_167)"/>
<defs>
<linearGradient id="paint0_linear_395_167" x1="37.5" y1="31.4062" x2="37.5" y2="43.5938" gradientUnits="userSpaceOnUse">
<stop stop-color="#F7B50F"/>
<stop offset="1" stop-color="#FAFAFA"/>
</linearGradient>
<linearGradient id="paint1_linear_395_167" x1="37.5" y1="4.21594" x2="37.5" y2="70.7841" gradientUnits="userSpaceOnUse">
<stop stop-color="#F7B50F"/>
<stop offset="1" stop-color="#FAFAFA"/>
</linearGradient>
<linearGradient id="paint2_linear_395_167" x1="37.5" y1="3.75281" x2="37.5" y2="71.2472" gradientUnits="userSpaceOnUse">
<stop stop-color="#F7B50F"/>
<stop offset="1" stop-color="#FAFAFA"/>
</linearGradient>
</defs>
</svg>
