<svg width="22" height="19" viewBox="0 0 22 19" fill="none" xmlns="http://www.w3.org/2000/svg">
<path d="M11 18.725C10.8912 18.725 10.7848 18.7125 10.6809 18.6875C10.577 18.6625 10.4833 18.6167 10.4 18.55C9.66667 18.0667 8.88696 17.6875 8.06088 17.4125C7.23479 17.1375 6.38117 17 5.5 17C4.8 17 4.1125 17.0917 3.4375 17.275C2.7625 17.4583 2.11667 17.7167 1.5 18.05C1.15 18.2333 0.8125 18.225 0.4875 18.025C0.1625 17.825 0 17.5333 0 17.15V5.10002C0 4.91668 0.0458333 4.74168 0.1375 4.57502C0.229167 4.40835 0.366667 4.28335 0.55 4.20002C1.31667 3.80002 2.11667 3.50002 2.95 3.30002C3.78333 3.10002 4.63333 3.00002 5.5 3.00002C6.46667 3.00002 7.4125 3.12502 8.3375 3.37502C9.2625 3.62502 10.15 4.00002 11 4.50002V17.15C11.85 16.6 12.7417 16.1875 13.675 15.9125C14.6083 15.6375 15.55 15.5 16.5 15.5C17.1 15.5 17.7542 15.5583 18.4625 15.675C19.1708 15.7917 19.85 16.0333 20.5 16.4V3.77502C20.6648 3.83752 20.8268 3.90314 20.9861 3.97189C21.1454 4.04064 21.3 4.11668 21.45 4.20002C21.6167 4.30002 21.75 4.43066 21.85 4.59194C21.95 4.75324 22 4.9226 22 5.10002V17.15C22 17.5333 21.8375 17.825 21.5125 18.025C21.1875 18.225 20.85 18.2333 20.5 18.05C19.8833 17.7167 19.2375 17.4583 18.5625 17.275C17.8875 17.0917 17.2 17 16.5 17C15.6188 17 14.7652 17.1375 13.9391 17.4125C13.113 17.6875 12.3333 18.0667 11.6 18.55C11.5167 18.6167 11.423 18.6625 11.3191 18.6875C11.2152 18.7125 11.1089 18.725 11 18.725ZM13.125 14.275C12.9917 14.375 12.8542 14.3958 12.7125 14.3375C12.5708 14.2792 12.5 14.1667 12.5 14V6.14804C12.5 6.11602 12.5333 6.03335 12.6 5.90002L18.35 0.150015C18.4667 0.0333488 18.6042 0.00453195 18.7625 0.0635653C18.9208 0.122582 19 0.234732 19 0.400015V9.00002C19 9.03335 18.9583 9.12502 18.875 9.27502L13.125 14.275ZM9.5 16.4V5.42502C8.93333 5.10835 8.275 4.87502 7.525 4.72502C6.775 4.57502 6.1 4.50002 5.5 4.50002C4.71667 4.50002 3.9875 4.58335 3.3125 4.75002C2.6375 4.91668 2.03333 5.12946 1.5 5.38834V16.4C2.08333 16.1167 2.7125 15.8958 3.3875 15.7375C4.0625 15.5792 4.77083 15.5 5.5125 15.5C6.25417 15.5 6.95833 15.5792 7.625 15.7375C8.29167 15.8958 8.91667 16.1167 9.5 16.4Z" fill="url(#paint0_linear_395_22)"/>
<defs>
<linearGradient id="paint0_linear_395_22" x1="11" y1="0.0338135" x2="11" y2="18.725" gradientUnits="userSpaceOnUse">
<stop stop-color="#F7B50F"/>
<stop offset="1" stop-color="#FAFAFA"/>
</linearGradient>
</defs>
</svg>
